<svg width="1229" height="554" viewBox="0 0 1229 554" fill="none" xmlns="http://www.w3.org/2000/svg">
<g filter="url(#filter0_dd_23_3)">
<path d="M1136.94 107.234C1184.83 189.234 1218.44 361.234 1177.94 398.234C1105.12 464.757 997.437 395.134 857.937 470.184C718.436 545.234 354.436 534.634 268.437 503.184C182.437 471.734 104.436 541.734 46.9365 398.234C-10.5632 254.734 73.0237 267.252 161.936 107.234C250.849 -52.785 335.024 78.7524 567.437 41.7338C799.849 4.71511 1089.04 25.2337 1136.94 107.234Z" fill="#336BFF" fill-opacity="0.03" shape-rendering="crispEdges"/>
<path d="M1136.94 107.234C1184.83 189.234 1218.44 361.234 1177.94 398.234C1105.12 464.757 997.437 395.134 857.937 470.184C718.436 545.234 354.436 534.634 268.437 503.184C182.437 471.734 104.436 541.734 46.9365 398.234C-10.5632 254.734 73.0237 267.252 161.936 107.234C250.849 -52.785 335.024 78.7524 567.437 41.7338C799.849 4.71511 1089.04 25.2337 1136.94 107.234Z" stroke="black" shape-rendering="crispEdges"/>
</g>
<defs>
<filter id="filter0_dd_23_3" x="0.1" y="0.1" width="1227.92" height="552.973" filterUnits="userSpaceOnUse" color-interpolation-filters="sRGB">
<feFlood flood-opacity="0" result="BackgroundImageFix"/>
<feColorMatrix in="SourceAlpha" type="matrix" values="0 0 0 0 0 0 0 0 0 0 0 0 0 0 0 0 0 0 127 0" result="hardAlpha"/>
<feOffset dx="16" dy="10"/>
<feGaussianBlur stdDeviation="8"/>
<feComposite in2="hardAlpha" operator="out"/>
<feColorMatrix type="matrix" values="0 0 0 0 0.647059 0 0 0 0 1 0 0 0 0 1 0 0 0 1 0"/>
<feBlend mode="normal" in2="BackgroundImageFix" result="effect1_dropShadow_23_3"/>
<feColorMatrix in="SourceAlpha" type="matrix" values="0 0 0 0 0 0 0 0 0 0 0 0 0 0 0 0 0 0 127 0" result="hardAlpha"/>
<feOffset dx="-12" dy="-8"/>
<feGaussianBlur stdDeviation="7.95"/>
<feComposite in2="hardAlpha" operator="out"/>
<feColorMatrix type="matrix" values="0 0 0 0 0.647059 0 0 0 0 1 0 0 0 0 1 0 0 0 1 0"/>
<feBlend mode="normal" in2="effect1_dropShadow_23_3" result="effect2_dropShadow_23_3"/>
<feBlend mode="normal" in="SourceGraphic" in2="effect2_dropShadow_23_3" result="shape"/>
</filter>
</defs>
</svg>
