<svg width="100" height="100" viewBox="0 0 100 100" fill="none" xmlns="http://www.w3.org/2000/svg">
<circle cx="50" cy="50" r="50" fill="#828282"/>
<path d="M38.468 22.3913C42.7086 18.9832 48.8521 18.9623 51.7289 18.913C59.5201 19.4227 64.6854 22.9303 64.1202 21.7391C63.7842 21.031 68.6854 15.4348 71.0767 15.4348C72.9897 15.4348 74.4825 12.971 74.9897 11.7391C82.1637 21.9565 76.5115 35.2174 78.2506 37.3913C79.6419 39.1304 81.7289 43.913 82.5984 46.087H80.2071C83.8593 51.4783 84.0477 61.087 83.6854 65.2174L81.2941 63.2609V66.3044C82.1637 89.4348 55.4245 90.5797 41.9463 88.2609C21.9463 87.2174 18.8303 71.1594 19.7723 63.2609L17.5984 65.6522C14.468 62 18.9028 50.6522 21.5115 45.4348L19.1202 46.087C18.7723 42.087 21.5839 38.6232 23.0332 37.3913C19.0332 22.2609 23.5405 13.6957 26.2941 11.3044C26.5839 12.6812 27.555 15.4348 29.1202 15.4348C33.1202 16.1304 37.0187 20.3623 38.468 22.3913Z" fill="#EAEAEC" stroke="black"/>
<path d="M43.7784 81.6834C38.1183 77.1079 36.777 70.3459 37.6233 52.4133C38.755 49.8693 44.1304 45.5597 50.9916 45.2174C54.5282 45.2174 62.8408 46.9796 65.2174 51.8641C68.1881 57.9697 63.5112 75.3094 62.8746 77.272C62.238 79.2345 58.8429 81.8512 56.5087 82.5054C52.7041 82.5716 45.0782 82.3358 43.9216 81.798C43.8425 81.7612 43.7937 81.723 43.7784 81.6834Z" fill="#828282"/>
<path d="M43.9891 81.8512C38.1516 77.2725 36.7666 70.5665 37.6233 52.4133C38.755 49.8693 44.1304 45.5597 50.9916 45.2174C54.5282 45.2174 62.8408 46.9796 65.2174 51.8641C68.1881 57.9697 63.5112 75.3094 62.8746 77.272C62.238 79.2345 58.8429 81.8512 56.5087 82.5054C52.3355 82.578 43.5648 82.2873 43.7769 81.6331" stroke="#828282"/>
<path d="M44.48 80.1123C39.354 75.9521 38.1393 69.804 38.9057 53.4992C39.9306 51.1862 44.7988 47.2678 51.0126 46.9565C54.2154 46.9565 61.7436 48.5587 63.8959 52.9999C66.5863 58.5512 62.3507 74.3169 61.7742 76.1013C61.1977 77.8857 58.1229 80.2649 56.009 80.8596C52.5635 80.9199 45.6572 80.7055 44.6097 80.2165C44.5381 80.183 44.4938 80.1483 44.48 80.1123Z" fill="#EAEAEC"/>
<path d="M44.6709 80.2649C39.3842 76.1018 38.1299 70.0045 38.9057 53.4992C39.9306 51.1862 44.7988 47.2678 51.0126 46.9565C54.2154 46.9565 61.7436 48.5587 63.8959 52.9999C66.5863 58.5512 62.3507 74.3169 61.7742 76.1013C61.1977 77.8857 58.1229 80.2649 56.009 80.8596C52.2296 80.9257 44.2865 80.6614 44.4787 80.0666" stroke="#828282"/>
<path d="M49.6542 57.1739C48.6108 54.5652 45.8861 54.3478 44.6542 54.5652C44.3644 54.7826 43.6542 55.2174 43.1325 55.2174C42.4803 55.2174 42.0455 55.2174 41.3934 53.6957C40.8716 52.4783 42.7702 52.1739 43.7847 52.1739C43.7847 53.5652 46.9731 54.1304 48.5673 54.1304C50.3064 54.2029 54.089 54.3044 55.3064 54.1304C56.5238 53.9565 58.8571 52.6812 59.8716 52.1739C63.1325 52.1739 61.6108 56.087 59.8716 55.2174C58.4803 54.5217 57.118 54.4928 56.6108 54.5652C53.8282 54.5652 52.9876 56.3044 52.9151 57.1739V73.6957C53.7847 73.9131 55.9151 74.3044 57.4803 74.1304C58.6 74.006 59.1189 73.8742 59.3237 73.7827L59.4369 73.6957C59.4369 73.7163 59.4051 73.7463 59.3237 73.7827L56.6108 75.8696H46.3934C45.5238 75.6957 44.2919 74.3478 43.7847 73.6957C47.9586 75.2609 49.4369 74.3478 49.6542 73.6957V57.1739Z" fill="#828282" stroke="#828282"/>
<path d="M27.3913 34.8368C32.087 32.9238 36.7391 37.0832 38.4783 39.402C38.4783 40.4455 36.1594 42.0107 35 42.6629H31.5217L28.4783 41.1411L27.3913 38.7498V34.8368Z" fill="#828282" stroke="#828282"/>
<path d="M72.3913 34.891C67.6957 32.978 63.0435 37.1374 61.3044 39.4562C61.3044 40.4997 63.6232 42.0649 64.7826 42.7171H68.2609L71.3044 41.1954L72.3913 38.8041V34.891Z" fill="#828282" stroke="#828282"/>
<path d="M24.735 32.3913L22.9959 35C21.6969 20.5945 24.0828 15.2174 24.0828 15.2174C24.4855 20.9706 24.9605 24.2729 26.6915 30.4348L24.735 32.3913Z" fill="#828282"/>
<path d="M75.3872 32.3913L77.1263 35C78.4253 20.5945 76.0393 15.2174 76.0393 15.2174C75.6367 20.9706 75.1617 24.2729 73.4306 30.4348L75.3872 32.3913Z" fill="#828282"/>
<path d="M20.6465 43.6957C24.5652 45.6703 33.0772 46.5754 42.603 45.2174C43.69 43.4058 45.9074 39.087 46.0813 36.3044C46.2987 32.8261 44.5595 33.9131 28.69 31.5218H19.1248L18.2552 33.9131C17.1682 36.9565 18.2117 37.7826 20.6465 43.6957Z" stroke="black"/>
<path d="M79.6557 43.4128C75.8599 45.5946 67.4667 46.8804 57.9699 45.8999C56.8136 44.0975 54.4275 39.7845 54.1333 36.9523C53.7654 33.4121 55.5361 34.4473 71.1534 31.3318L80.6297 30.9248L81.596 33.3281C82.8063 36.3876 81.8087 37.2751 79.6557 43.4128Z" stroke="black"/>
<path d="M54.3421 36.5218H46.0813" stroke="black"/>
</svg>
