<svg width="232" height="226" viewBox="0 0 232 226" fill="none" xmlns="http://www.w3.org/2000/svg">
<path d="M232 113C232 175.408 180.065 226 116 226C51.935 226 0 175.408 0 113C0 50.5918 51.935 0 116 0C180.065 0 232 50.5918 232 113Z" fill="#002074"/>
<path d="M89.4764 49.5C99.2297 41.6614 113.36 41.6134 119.976 41.5C137.896 42.6722 149.776 50.7397 148.476 48C147.704 46.3713 158.976 33.5 164.476 33.5C168.876 33.5 172.31 27.8333 173.476 25C189.976 48.5 176.976 79 180.976 84C184.176 88 188.976 99 190.976 104H185.476C193.876 116.4 194.31 138.5 193.476 148L187.976 143.5V150.5C189.976 203.7 128.476 206.333 97.4764 201C52.5 196 44.3097 161.667 46.4764 143.5L41.4764 149C34.2764 140.6 44.4764 114.5 50.4764 102.5L44.9764 104C44.1764 94.8 50.6431 86.8333 53.9764 84C44.7764 49.2 55.1431 29.5 61.4764 24C62.1431 27.1667 64.3764 33.5 67.9764 33.5C77.1764 35.1 86.1431 44.8333 89.4764 49.5Z" fill="white" stroke="#336BFF"/>
<path d="M101.69 185.872C88.6721 175.348 85.5871 159.796 87.5335 118.551C90.1364 112.699 102.5 102.787 118.281 102C126.415 102 145.534 106.053 151 117.287C157.833 131.33 147.076 171.212 145.612 175.726C144.147 180.239 136.339 186.258 130.97 187.762C122.219 187.915 104.68 187.372 102.02 186.135C101.838 186.051 101.725 185.963 101.69 185.872Z" fill="#336BFF"/>
<path d="M102.175 186.258C88.7487 175.727 85.5632 160.303 87.5335 118.551C90.1364 112.699 102.5 102.787 118.281 102C126.415 102 145.534 106.053 151 117.287C157.833 131.33 147.076 171.212 145.612 175.726C144.147 180.239 136.339 186.258 130.97 187.762C121.372 187.93 101.199 187.261 101.687 185.756" stroke="#336BFF"/>
<path d="M103.304 182.258C91.5143 172.69 88.7205 158.549 90.4831 121.048C92.8404 115.728 104.037 106.716 118.329 106C125.695 106 143.01 109.685 147.961 119.9C154.149 132.668 144.407 168.929 143.081 173.033C141.755 177.137 134.683 182.609 129.821 183.977C121.896 184.116 106.012 183.623 103.602 182.498C103.438 182.421 103.336 182.341 103.304 182.258Z" fill="white"/>
<path d="M103.743 182.609C91.5837 173.034 88.6988 159.01 90.4831 121.048C92.8404 115.728 104.037 106.716 118.329 106C125.695 106 143.01 109.685 147.961 119.9C154.149 132.668 144.407 168.929 143.081 173.033C141.755 177.137 134.683 182.609 129.821 183.977C121.128 184.129 102.859 183.521 103.301 182.153" stroke="#336BFF"/>
<path d="M115.205 129.5C112.805 123.5 106.538 123 103.705 123.5C103.038 124 101.405 125 100.205 125C98.7048 125 97.7048 125 96.2048 121.5C95.0048 118.7 99.3714 118 101.705 118C101.705 121.2 109.038 122.5 112.705 122.5C116.705 122.667 125.405 122.9 128.205 122.5C131.005 122.1 136.371 119.167 138.705 118C146.205 118 142.705 127 138.705 125C135.505 123.4 132.371 123.333 131.205 123.5C124.805 123.5 122.871 127.5 122.705 129.5V167.5C124.705 168 129.605 168.9 133.205 168.5C135.78 168.214 136.974 167.911 137.444 167.7L137.705 167.5C137.705 167.547 137.632 167.616 137.444 167.7L131.205 172.5H107.705C105.705 172.1 102.871 169 101.705 167.5C111.305 171.1 114.705 169 115.205 167.5V129.5Z" fill="#336BFF" stroke="#336BFF"/>
<path d="M64 78.1247C74.8 73.7247 85.5 83.2914 89.5 88.6247C89.5 91.0247 84.1667 94.6247 81.5 96.1247H73.5L66.5 92.6247L64 87.1247V78.1247Z" fill="#336BFF" stroke="#336BFF"/>
<path d="M167.5 78.2494C156.7 73.8494 146 83.416 142 88.7494C142 91.1494 147.333 94.7494 150 96.2494H158L165 92.7494L167.5 87.2494V78.2494Z" fill="#336BFF" stroke="#336BFF"/>
<path d="M57.8905 72.5L53.8905 78.5C50.9029 45.3675 56.3905 33 56.3905 33C57.3165 46.2325 58.409 53.8277 62.3905 68L57.8905 72.5Z" fill="#336BFF"/>
<path d="M174.39 72.5L178.39 78.5C181.378 45.3675 175.891 33 175.891 33C174.964 46.2325 173.872 53.8277 169.891 68L174.39 72.5Z" fill="#336BFF"/>
<path d="M48.4869 98.5C57.5 103.042 77.0776 105.123 98.9869 102C101.487 97.8333 106.587 87.9 106.987 81.5C107.487 73.5 103.487 76 66.9869 70.5H44.9869L42.9869 76C40.4869 83 42.8869 84.9 48.4869 98.5Z" stroke="#336BFF"/>
<path d="M184.208 97.8494C175.478 102.867 156.173 105.825 134.331 103.57C131.671 99.4242 126.183 89.5044 125.506 82.9904C124.66 74.8479 128.733 77.2289 164.653 70.0632L186.448 69.1271L188.671 74.6546C191.454 81.6916 189.16 83.7326 184.208 97.8494Z" stroke="#336BFF"/>
<path d="M125.987 82H106.987" stroke="#336BFF"/>
</svg>
