<svg width="256" height="285" viewBox="0 0 256 285" fill="none" xmlns="http://www.w3.org/2000/svg">
<g clip-path="url(#clip0_38_2)">
<circle cx="134" cy="115" r="115" fill="#828282"/>
<path d="M107.476 51.5C117.23 43.6614 131.36 43.6134 137.976 43.5C155.896 44.6722 167.776 52.7397 166.476 50C165.704 48.3713 176.976 35.5 182.476 35.5C186.876 35.5 190.31 29.8333 191.476 27C207.976 50.5 194.976 81 198.976 86C202.176 90 206.976 101 208.976 106H203.476C211.876 118.4 212.31 140.5 211.476 150L205.976 145.5V152.5C207.976 205.7 146.476 208.333 115.476 203C69.4764 200.6 62.3097 163.667 64.4764 145.5L59.4764 151C52.2764 142.6 62.4764 116.5 68.4764 104.5L62.9764 106C62.1764 96.8 68.6431 88.8333 71.9764 86C62.7764 51.2 73.1431 31.5 79.4764 26C80.1431 29.1667 82.3764 35.5 85.9764 35.5C95.1764 37.1 104.143 46.8333 107.476 51.5Z" fill="white" stroke="black"/>
<path d="M119.69 187.872C106.672 177.348 103.587 161.796 105.533 120.551C108.136 114.699 120.5 104.787 136.281 104C144.415 104 163.534 108.053 169 119.287C175.833 133.33 165.076 173.212 163.612 177.726C162.147 182.239 154.339 188.258 148.97 189.762C140.219 189.915 122.68 189.372 120.02 188.135C119.838 188.051 119.725 187.963 119.69 187.872Z" fill="#828282"/>
<path d="M120.175 188.258C106.749 177.727 103.563 162.303 105.533 120.551C108.136 114.699 120.5 104.787 136.281 104C144.415 104 163.534 108.053 169 119.287C175.833 133.33 165.076 173.212 163.612 177.726C162.147 182.239 154.339 188.258 148.97 189.762C139.372 189.93 119.199 189.261 119.687 187.756" stroke="#828282"/>
<path d="M121.304 184.258C109.514 174.69 106.72 160.549 108.483 123.048C110.84 117.728 122.037 108.716 136.329 108C143.695 108 161.01 111.685 165.961 121.9C172.149 134.668 162.407 170.929 161.081 175.033C159.755 179.137 152.683 184.609 147.821 185.977C139.896 186.116 124.012 185.623 121.602 184.498C121.438 184.421 121.336 184.341 121.304 184.258Z" fill="white"/>
<path d="M121.743 184.609C109.584 175.034 106.699 161.01 108.483 123.048C110.84 117.728 122.037 108.716 136.329 108C143.695 108 161.01 111.685 165.961 121.9C172.149 134.668 162.407 170.929 161.081 175.033C159.755 179.137 152.683 184.609 147.821 185.977C139.128 186.129 120.859 185.521 121.301 184.153" stroke="#828282"/>
<path d="M133.205 131.5C130.805 125.5 124.538 125 121.705 125.5C121.038 126 119.405 127 118.205 127C116.705 127 115.705 127 114.205 123.5C113.005 120.7 117.371 120 119.705 120C119.705 123.2 127.038 124.5 130.705 124.5C134.705 124.667 143.405 124.9 146.205 124.5C149.005 124.1 154.371 121.167 156.705 120C164.205 120 160.705 129 156.705 127C153.505 125.4 150.371 125.333 149.205 125.5C142.805 125.5 140.871 129.5 140.705 131.5V169.5C142.705 170 147.605 170.9 151.205 170.5C153.78 170.214 154.974 169.911 155.444 169.7L155.705 169.5C155.705 169.547 155.632 169.616 155.444 169.7L149.205 174.5H125.705C123.705 174.1 120.871 171 119.705 169.5C129.305 173.1 132.705 171 133.205 169.5V131.5Z" fill="#828282"/>
<path d="M121.705 125.5C124.538 125 130.805 125.5 133.205 131.5V169.5C132.705 171 129.305 173.1 119.705 169.5C120.871 171 123.705 174.1 125.705 174.5H149.205L155.705 169.5C155.705 169.667 154.805 170.1 151.205 170.5C147.605 170.9 142.705 170 140.705 169.5V131.5C140.871 129.5 142.805 125.5 149.205 125.5C150.371 125.333 153.505 125.4 156.705 127C160.705 129 164.205 120 156.705 120C154.371 121.167 149.005 124.1 146.205 124.5C143.405 124.9 134.705 124.667 130.705 124.5C127.038 124.5 119.705 123.2 119.705 120C117.371 120 113.005 120.7 114.205 123.5C115.705 127 116.705 127 118.205 127C119.405 127 121.038 126 121.705 125.5Z" stroke="#828282"/>
<path d="M82 80.1247C92.8 75.7247 103.5 85.2914 107.5 90.6247C107.5 93.0247 102.167 96.6247 99.5 98.1247H91.5L84.5 94.6247L82 89.1247V80.1247Z" fill="#828282" stroke="#828282"/>
<path d="M185.5 80.2494C174.7 75.8494 164 85.416 160 90.7494C160 93.1494 165.333 96.7494 168 98.2494H176L183 94.7494L185.5 89.2494V80.2494Z" fill="#828282" stroke="#828282"/>
<path d="M75.8905 74.5L71.8905 80.5C68.9029 47.3675 74.3905 35 74.3905 35C75.3165 48.2325 76.409 55.8277 80.3905 70L75.8905 74.5Z" fill="#828282"/>
<path d="M192.39 74.5L196.39 80.5C199.378 47.3675 193.891 35 193.891 35C192.964 48.2325 191.872 55.8277 187.891 70L192.39 74.5Z" fill="#828282"/>
<path d="M66.4869 100.5C75.5 105.042 95.0776 107.123 116.987 104C119.487 99.8333 124.587 89.9 124.987 83.5C125.487 75.5 121.487 78 84.9869 72.5H62.9869L60.9869 78C58.4869 85 60.8869 86.9 66.4869 100.5Z" stroke="black"/>
<path d="M202.208 99.8494C193.478 104.867 174.173 107.825 152.331 105.57C149.671 101.424 144.183 91.5044 143.506 84.9904C142.661 76.8479 146.733 79.2289 182.653 72.0632L204.448 71.1271L206.671 76.6546C209.454 83.6916 207.16 85.7326 202.208 99.8494Z" stroke="black"/>
<path d="M143.987 84H124.987" stroke="black"/>
<path d="M34.5839 274.576V270.256H30.2159V248.08H34.5839V243.712H48.1199V248.08H52.5359V257.2H47.6399V248.56H35.0639V269.776H47.6399V261.04H52.5359V270.256H48.1199V274.576H34.5839ZM62.7089 274.576V270.256H58.3409V256.768H62.7089V252.4H76.2449V256.768H80.6609V269.776H85.0289V274.576H80.1809V270.256H76.2449V274.576H62.7089ZM63.1889 269.776H75.7649V257.2H63.1889V269.776ZM90.8253 283.024V256.768H95.1933V252.4H108.729V256.768H113.145V270.256H108.729V274.576H95.6733V283.024H90.8253ZM95.6733 269.776H108.249V257.2H95.6733V269.776ZM123.318 283.264V278.944H118.95V274.144H123.798V278.464H136.422V270.256H123.318V265.888H118.95V252.4H123.798V265.408H136.422V252.4H141.27V278.944H136.902V283.264H123.318ZM151.443 274.576V270.256H147.075V243.712H151.923V252.4H164.979V256.768H169.395V270.256H164.979V274.576H151.443ZM151.923 269.776H164.499V257.2H151.923V269.776ZM175.2 274.576V252.4H180.048V274.576H175.2ZM175.2 248.56V243.712H180.048V248.56H175.2ZM193.076 274.576V270.256H188.756V257.2H184.388V252.4H188.756V243.712H193.556V252.4H206.708V257.2H193.556V269.776H206.228V265.408H211.076V270.256H206.708V274.576H193.076ZM219.787 274.576V270.256H215.419V256.768H219.787V252.4H233.323V256.768H237.739V261.52H232.843V257.2H220.267V261.04H229.003V265.888H220.267V269.776H232.843V265.36H237.739V270.208H233.323V274.576H219.787Z" fill="white"/>
</g>
<defs>
<clipPath id="clip0_38_2">
<rect width="256" height="285" fill="white"/>
</clipPath>
</defs>
</svg>
