<svg width="157" height="181" viewBox="0 0 157 181" fill="none" xmlns="http://www.w3.org/2000/svg">
<path d="M51.4764 26.5C61.2297 18.6614 75.3598 18.6134 81.9764 18.5C99.8963 19.6722 111.776 27.7397 110.476 25C109.704 23.3713 120.976 10.5 126.476 10.5C130.876 10.5 134.31 4.83333 135.476 2C151.976 25.5 138.976 56 142.976 61C146.176 65 150.976 76 152.976 81H147.476C155.876 93.4 156.31 115.5 155.476 125L149.976 120.5V127.5C151.976 180.7 90.4764 183.333 59.4764 178C14.5 173 6.30973 138.667 8.47639 120.5L3.4764 126C-3.7236 117.6 6.4764 91.5 12.4764 79.5L6.9764 81C6.1764 71.8 12.6431 63.8333 15.9764 61C6.7764 26.2 17.1431 6.5 23.4764 1C24.1431 4.16667 26.3764 10.5 29.9764 10.5C39.1764 12.1 48.1431 21.8333 51.4764 26.5Z" fill="white" stroke="#336BFF"/>
<path d="M63.6902 162.872C50.6721 152.348 47.5871 136.796 49.5335 95.5507C52.1364 89.6994 64.5 79.7874 80.2807 79C88.4149 79 107.534 83.053 113 94.2874C119.833 108.33 109.076 148.212 107.612 152.726C106.147 157.239 98.3386 163.258 92.97 164.762C84.2195 164.915 66.6799 164.372 64.0196 163.135C63.8377 163.051 63.7254 162.963 63.6902 162.872Z" fill="#336BFF"/>
<path d="M64.175 163.258C50.7487 152.727 47.5632 137.303 49.5335 95.5507C52.1364 89.6994 64.5 79.7874 80.2807 79C88.4149 79 107.534 83.053 113 94.2874C119.833 108.33 109.076 148.212 107.612 152.726C106.147 157.239 98.3386 163.258 92.97 164.762C83.3717 164.93 63.1989 164.261 63.687 162.756" stroke="#336BFF"/>
<path d="M65.3039 159.258C53.5143 149.69 50.7205 135.549 52.4831 98.0483C54.8404 92.7282 66.0373 83.7159 80.3289 83C87.6955 83 105.01 86.6851 109.961 96.8997C116.149 109.668 106.407 145.929 105.081 150.033C103.755 154.137 96.6827 159.609 91.8207 160.977C83.896 161.116 68.0116 160.623 65.6023 159.498C65.4375 159.421 65.3358 159.341 65.3039 159.258Z" fill="#FEFEFE"/>
<path d="M65.743 159.609C53.5837 150.034 50.6988 136.01 52.4831 98.0483C54.8404 92.7282 66.0373 83.7159 80.3289 83C87.6955 83 105.01 86.6851 109.961 96.8997C116.149 109.668 106.407 145.929 105.081 150.033C103.755 154.137 96.6827 159.609 91.8207 160.977C83.1282 161.129 64.859 160.521 65.301 159.153" stroke="#336BFF"/>
<path d="M77.2048 106.5C74.8048 100.5 68.5381 100 65.7048 100.5C65.0381 101 63.4048 102 62.2048 102C60.7048 102 59.7048 102 58.2048 98.5C57.0048 95.7 61.3714 95 63.7048 95C63.7048 98.2 71.0381 99.5 74.7048 99.5C78.7048 99.6667 87.4048 99.9 90.2048 99.5C93.0048 99.1 98.3714 96.1667 100.705 95C108.205 95 104.705 104 100.705 102C97.5048 100.4 94.3714 100.333 93.2048 100.5C86.8048 100.5 84.8714 104.5 84.7048 106.5V144.5C86.7048 145 91.6048 145.9 95.2048 145.5C97.78 145.214 98.9736 144.911 99.4445 144.7L99.7048 144.5C99.7048 144.547 99.6318 144.616 99.4445 144.7L93.2048 149.5H69.7048C67.7048 149.1 64.8714 146 63.7048 144.5C73.3048 148.1 76.7048 146 77.2048 144.5V106.5Z" fill="#336BFF" stroke="#336BFF"/>
<path d="M26 55.1247C36.8 50.7247 47.5 60.2914 51.5 65.6247C51.5 68.0247 46.1667 71.6247 43.5 73.1247H35.5L28.5 69.6247L26 64.1247V55.1247Z" fill="#336BFF" stroke="#336BFF"/>
<path d="M129.5 55.2494C118.7 50.8494 108 60.416 104 65.7494C104 68.1494 109.333 71.7494 112 73.2494H120L127 69.7494L129.5 64.2494V55.2494Z" fill="#336BFF" stroke="#336BFF"/>
<path d="M19.8905 49.5L15.8905 55.5C12.9029 22.3675 18.3905 10 18.3905 10C19.3165 23.2325 20.409 30.8277 24.3905 45L19.8905 49.5Z" fill="#336BFF"/>
<path d="M136.39 49.5L140.39 55.5C143.378 22.3675 137.891 10 137.891 10C136.964 23.2325 135.872 30.8277 131.891 45L136.39 49.5Z" fill="#336BFF"/>
<path d="M10.4869 75.5C19.5 80.0416 39.0776 82.1233 60.9869 79C63.4869 74.8333 68.5869 64.9 68.9869 58.5C69.4869 50.5 65.4869 53 28.9869 47.5H6.98692L4.9869 53C2.48692 60 4.88691 61.9 10.4869 75.5Z" stroke="#336BFF"/>
<path d="M146.208 74.8494C137.478 79.8675 118.173 82.8248 96.3306 80.5698C93.6712 76.4242 88.1832 66.5044 87.5064 59.9904C86.6605 51.8479 90.7329 54.2289 126.653 47.0632L148.448 46.1271L150.671 51.6546C153.454 58.6916 151.16 60.7326 146.208 74.8494Z" stroke="#336BFF"/>
<path d="M87.9869 59H68.9869" stroke="#336BFF"/>
</svg>
